%
M48
M72
T01C0.0250
T02C0.0400
%
T01
X3100Y6100
X7100Y6100
T02
X1100Y11100
X1100Y10100
X1100Y9100
X1100Y8100
X1100Y7100
X1100Y6100
X1100Y5100
X1100Y4100
X1100Y3100
X1100Y2100
X1100Y1100
X9100Y11100
X9100Y10100
X9100Y9100
X9100Y8100
X9100Y7100
X9100Y6100
X9100Y5100
X9100Y4100
X9100Y3100
X9100Y2100
X9100Y1100
M30
