G75*
%MOIN*%
%OFA0B0*%
%FSLAX24Y24*%
%IPPOS*%
%LPD*%
%AMOC8*
5,1,8,0,0,1.08239X$1,22.5*
%
%ADD10C,0.0000*%
%ADD11C,0.0030*%
%ADD12C,0.0060*%
%ADD13C,0.0080*%
%ADD14C,0.0050*%
D10*
X000100Y000100D02*
X000100Y012100D01*
X010100Y012100D01*
X010100Y000100D02*
X000100Y000100D01*
X010100Y000100D02*
X010100Y012100D01*
D11*
X006213Y010742D02*
X006213Y010496D01*
X006152Y010434D01*
X006028Y010434D01*
X005966Y010496D01*
X006213Y010742D01*
X006152Y010804D01*
X006028Y010804D01*
X005966Y010742D01*
X005966Y010496D01*
X005845Y010434D02*
X005598Y010434D01*
X005845Y010681D01*
X005845Y010742D01*
X005783Y010804D01*
X005660Y010804D01*
X005598Y010742D01*
X005477Y010742D02*
X005230Y010496D01*
X005292Y010434D01*
X005415Y010434D01*
X005477Y010496D01*
X005477Y010742D01*
X005415Y010804D01*
X005292Y010804D01*
X005230Y010742D01*
X005230Y010496D01*
X005108Y010619D02*
X004861Y010619D01*
X005047Y010804D01*
X005047Y010434D01*
X004740Y010434D02*
X004740Y010804D01*
X004493Y010804D02*
X004493Y010434D01*
X004372Y010434D02*
X004248Y010557D01*
X004310Y010557D02*
X004125Y010557D01*
X004125Y010434D02*
X004125Y010804D01*
X004310Y010804D01*
X004372Y010742D01*
X004372Y010619D01*
X004310Y010557D01*
X004493Y010804D02*
X004740Y010434D01*
X003549Y006005D02*
X003404Y006005D01*
X003404Y005715D01*
X003549Y005715D01*
X003598Y005763D01*
X003598Y005957D01*
X003549Y006005D01*
X003303Y006005D02*
X003303Y005715D01*
X003110Y006005D01*
X003110Y005715D01*
X003110Y005605D02*
X003206Y005605D01*
X003158Y005605D02*
X003158Y005315D01*
X003110Y005315D02*
X003206Y005315D01*
X003206Y005205D02*
X003110Y005205D01*
X003158Y005205D02*
X003158Y004915D01*
X003110Y004915D02*
X003206Y004915D01*
X003206Y004805D02*
X003110Y004805D01*
X003158Y004805D02*
X003158Y004515D01*
X003110Y004515D02*
X003206Y004515D01*
X003206Y004405D02*
X003303Y004308D01*
X003303Y004115D01*
X003404Y004115D02*
X003404Y004405D01*
X003549Y004405D01*
X003598Y004357D01*
X003598Y004260D01*
X003549Y004212D01*
X003404Y004212D01*
X003501Y004212D02*
X003598Y004115D01*
X003549Y004005D02*
X003598Y003957D01*
X003598Y003860D01*
X003549Y003812D01*
X003404Y003812D01*
X003404Y003715D02*
X003404Y004005D01*
X003549Y004005D01*
X003501Y003812D02*
X003598Y003715D01*
X003598Y003605D02*
X003404Y003412D01*
X003453Y003460D02*
X003598Y003315D01*
X003699Y003315D02*
X003892Y003315D01*
X003994Y003267D02*
X004187Y003267D01*
X004288Y003363D02*
X004337Y003315D01*
X004433Y003315D01*
X004482Y003363D01*
X004482Y003412D01*
X004433Y003460D01*
X004337Y003460D01*
X004288Y003508D01*
X004288Y003557D01*
X004337Y003605D01*
X004433Y003605D01*
X004482Y003557D01*
X004583Y003605D02*
X004583Y003315D01*
X004680Y003412D01*
X004776Y003315D01*
X004776Y003605D01*
X004776Y003715D02*
X004583Y004005D01*
X004583Y004115D02*
X004776Y004405D01*
X004583Y004405D02*
X004776Y004115D01*
X004776Y004005D02*
X004583Y003715D01*
X004482Y003715D02*
X004385Y003812D01*
X004433Y003812D02*
X004288Y003812D01*
X004288Y003715D02*
X004288Y004005D01*
X004433Y004005D01*
X004482Y003957D01*
X004482Y003860D01*
X004433Y003812D01*
X004385Y004115D02*
X004385Y004405D01*
X004288Y004405D02*
X004482Y004405D01*
X004187Y004067D02*
X003994Y004067D01*
X003892Y004005D02*
X003699Y004005D01*
X003796Y004005D02*
X003796Y003715D01*
X003892Y003605D02*
X003699Y003605D01*
X003699Y003315D01*
X003699Y003205D02*
X003844Y003205D01*
X003892Y003157D01*
X003892Y003060D01*
X003844Y003012D01*
X003699Y003012D01*
X003699Y002915D02*
X003699Y003205D01*
X003598Y003157D02*
X003549Y003205D01*
X003404Y003205D01*
X003404Y002915D01*
X003549Y002915D01*
X003598Y002963D01*
X003598Y003157D01*
X003404Y003315D02*
X003404Y003605D01*
X003303Y003508D02*
X003303Y003315D01*
X003303Y003460D02*
X003110Y003460D01*
X003110Y003508D02*
X003206Y003605D01*
X003303Y003508D01*
X003303Y003715D02*
X003303Y003908D01*
X003206Y004005D01*
X003110Y003908D01*
X003110Y003715D01*
X003008Y003763D02*
X003008Y004005D01*
X002960Y004115D02*
X003008Y004163D01*
X003008Y004405D01*
X003008Y004515D02*
X003008Y004708D01*
X002912Y004805D01*
X002815Y004708D01*
X002815Y004515D01*
X002815Y004405D02*
X002815Y004163D01*
X002863Y004115D01*
X002960Y004115D01*
X002815Y004005D02*
X002815Y003763D01*
X002863Y003715D01*
X002960Y003715D01*
X003008Y003763D01*
X003110Y003860D02*
X003303Y003860D01*
X003110Y004115D02*
X003110Y004308D01*
X003206Y004405D01*
X003110Y004260D02*
X003303Y004260D01*
X003354Y004515D02*
X003451Y004515D01*
X003500Y004563D01*
X003500Y004757D01*
X003451Y004805D01*
X003354Y004805D01*
X003306Y004757D01*
X003306Y004563D01*
X003354Y004515D01*
X003601Y004563D02*
X003794Y004757D01*
X003794Y004563D01*
X003746Y004515D01*
X003649Y004515D01*
X003601Y004563D01*
X003601Y004757D01*
X003649Y004805D01*
X003746Y004805D01*
X003794Y004757D01*
X003794Y004915D02*
X003601Y004915D01*
X003697Y004915D02*
X003697Y005205D01*
X003601Y005108D01*
X003500Y005157D02*
X003500Y004963D01*
X003451Y004915D01*
X003354Y004915D01*
X003306Y004963D01*
X003306Y005157D01*
X003354Y005205D01*
X003451Y005205D01*
X003500Y005157D01*
X003451Y005315D02*
X003500Y005363D01*
X003500Y005557D01*
X003451Y005605D01*
X003354Y005605D01*
X003306Y005557D01*
X003306Y005363D01*
X003354Y005315D01*
X003451Y005315D01*
X003601Y005315D02*
X003794Y005508D01*
X003794Y005557D01*
X003746Y005605D01*
X003649Y005605D01*
X003601Y005557D01*
X003601Y005315D02*
X003794Y005315D01*
X003796Y004405D02*
X003796Y004115D01*
X003699Y004405D02*
X003892Y004405D01*
X003994Y003667D02*
X004187Y003667D01*
X003796Y003460D02*
X003699Y003460D01*
X003303Y002915D02*
X003110Y002915D01*
X003110Y003205D01*
X003008Y003205D02*
X003008Y002915D01*
X002960Y002805D02*
X003008Y002757D01*
X003008Y002660D01*
X002960Y002612D01*
X002815Y002612D01*
X002815Y002515D02*
X002815Y002805D01*
X002960Y002805D01*
X002815Y002915D02*
X002815Y003205D01*
X002912Y003108D01*
X003008Y003205D01*
X003008Y003315D02*
X002912Y003412D01*
X002815Y003315D01*
X002815Y003605D01*
X003008Y003605D02*
X003008Y003315D01*
X003110Y003315D02*
X003110Y003508D01*
X003110Y002805D02*
X003206Y002805D01*
X003158Y002805D02*
X003158Y002515D01*
X003110Y002515D02*
X003206Y002515D01*
X003306Y002563D02*
X003354Y002515D01*
X003451Y002515D01*
X003500Y002563D01*
X003500Y002757D01*
X003451Y002805D01*
X003354Y002805D01*
X003306Y002757D01*
X003306Y002563D01*
X003404Y002405D02*
X003549Y002405D01*
X003598Y002357D01*
X003598Y002163D01*
X003549Y002115D01*
X003404Y002115D01*
X003404Y002405D01*
X003601Y002515D02*
X003794Y002515D01*
X003697Y002515D02*
X003697Y002805D01*
X003601Y002708D01*
X003699Y002405D02*
X003844Y002405D01*
X003892Y002357D01*
X003892Y002260D01*
X003844Y002212D01*
X003699Y002212D01*
X003699Y002115D02*
X003699Y002405D01*
X003994Y002067D02*
X004187Y002067D01*
X004288Y002115D02*
X004482Y002115D01*
X004583Y002212D02*
X004680Y002115D01*
X004776Y002212D01*
X004776Y002405D01*
X004583Y002405D02*
X004583Y002212D01*
X004482Y002405D02*
X004288Y002405D01*
X004288Y002115D01*
X004288Y002260D02*
X004385Y002260D01*
X004337Y001405D02*
X004288Y001357D01*
X004288Y001163D01*
X004482Y001357D01*
X004482Y001163D01*
X004433Y001115D01*
X004337Y001115D01*
X004288Y001163D01*
X004187Y001115D02*
X003994Y001115D01*
X004187Y001308D01*
X004187Y001357D01*
X004139Y001405D01*
X004042Y001405D01*
X003994Y001357D01*
X003892Y001357D02*
X003892Y001163D01*
X003844Y001115D01*
X003747Y001115D01*
X003699Y001163D01*
X003892Y001357D01*
X003844Y001405D01*
X003747Y001405D01*
X003699Y001357D01*
X003699Y001163D01*
X003598Y001260D02*
X003404Y001260D01*
X003549Y001405D01*
X003549Y001115D01*
X003598Y001005D02*
X003598Y000812D01*
X003501Y000715D01*
X003404Y000812D01*
X003404Y001005D01*
X003303Y001005D02*
X003110Y001005D01*
X003110Y000715D01*
X003303Y000715D01*
X003255Y000605D02*
X003303Y000557D01*
X003303Y000363D01*
X003255Y000315D01*
X003158Y000315D01*
X003110Y000363D01*
X003110Y000557D01*
X003158Y000605D01*
X003255Y000605D01*
X003206Y000860D02*
X003110Y000860D01*
X003008Y000860D02*
X003008Y000957D01*
X002960Y001005D01*
X002815Y001005D01*
X002815Y000715D01*
X002815Y000812D02*
X002960Y000812D01*
X003008Y000860D01*
X002912Y000812D02*
X003008Y000715D01*
X003008Y000605D02*
X002912Y000605D01*
X002960Y000605D02*
X002960Y000363D01*
X002912Y000315D01*
X002863Y000315D01*
X002815Y000363D01*
X002815Y001115D02*
X002815Y001405D01*
X002960Y001405D01*
X003008Y001357D01*
X003008Y001260D01*
X002960Y001212D01*
X002815Y001212D01*
X002912Y001212D02*
X003008Y001115D01*
X003110Y001115D02*
X003110Y001405D01*
X003303Y001115D01*
X003303Y001405D01*
X003255Y001715D02*
X003158Y001715D01*
X003110Y001763D01*
X003158Y001860D02*
X003255Y001860D01*
X003303Y001812D01*
X003303Y001763D01*
X003255Y001715D01*
X003158Y001860D02*
X003110Y001908D01*
X003110Y001957D01*
X003158Y002005D01*
X003255Y002005D01*
X003303Y001957D01*
X003303Y002115D02*
X003110Y002115D01*
X003110Y002405D01*
X003008Y002405D02*
X003008Y002115D01*
X003008Y002005D02*
X003008Y001715D01*
X002912Y001812D01*
X002815Y001715D01*
X002815Y002005D01*
X002815Y002115D02*
X002815Y002405D01*
X002912Y002308D01*
X003008Y002405D01*
X004090Y001005D02*
X004187Y000908D01*
X004187Y000715D01*
X004187Y000605D02*
X004187Y000363D01*
X004139Y000315D01*
X004042Y000315D01*
X003994Y000363D01*
X003994Y000605D01*
X003892Y000605D02*
X003892Y000315D01*
X003892Y000460D02*
X003699Y000460D01*
X003598Y000412D02*
X003598Y000363D01*
X003549Y000315D01*
X003453Y000315D01*
X003404Y000363D01*
X003453Y000460D02*
X003549Y000460D01*
X003598Y000412D01*
X003699Y000315D02*
X003699Y000605D01*
X003699Y000667D02*
X003892Y000667D01*
X003994Y000715D02*
X003994Y000908D01*
X004090Y001005D01*
X003994Y000860D02*
X004187Y000860D01*
X004385Y000605D02*
X004288Y000508D01*
X004288Y000315D01*
X004288Y000460D02*
X004482Y000460D01*
X004482Y000508D02*
X004482Y000315D01*
X004482Y000508D02*
X004385Y000605D01*
X004878Y000508D02*
X004878Y000315D01*
X004878Y000460D02*
X005071Y000460D01*
X005071Y000508D02*
X005071Y000315D01*
X005172Y000315D02*
X005317Y000315D01*
X005366Y000363D01*
X005366Y000557D01*
X005317Y000605D01*
X005172Y000605D01*
X005172Y000315D01*
X005071Y000508D02*
X004974Y000605D01*
X004878Y000508D01*
X004878Y001115D02*
X005023Y001115D01*
X005071Y001163D01*
X005071Y001212D01*
X005023Y001260D01*
X004878Y001260D01*
X004878Y001115D02*
X004878Y001405D01*
X005023Y001405D01*
X005071Y001357D01*
X005071Y001308D01*
X005023Y001260D01*
X005172Y001212D02*
X005317Y001212D01*
X005366Y001260D01*
X005366Y001357D01*
X005317Y001405D01*
X005172Y001405D01*
X005172Y001115D01*
X005269Y001212D02*
X005366Y001115D01*
X005467Y001115D02*
X005660Y001115D01*
X005762Y001115D02*
X005762Y001308D01*
X005858Y001405D01*
X005955Y001308D01*
X005955Y001115D01*
X006056Y001115D02*
X006056Y001405D01*
X006105Y001260D02*
X006250Y001115D01*
X006351Y001163D02*
X006399Y001115D01*
X006496Y001115D01*
X006544Y001163D01*
X006544Y001357D01*
X006496Y001405D01*
X006399Y001405D01*
X006351Y001357D01*
X006351Y001163D01*
X006250Y001405D02*
X006056Y001212D01*
X005955Y001260D02*
X005762Y001260D01*
X005660Y001405D02*
X005467Y001405D01*
X005467Y001115D01*
X005467Y001260D02*
X005564Y001260D01*
X005660Y000605D02*
X005467Y000412D01*
X005515Y000460D02*
X005660Y000315D01*
X005762Y000315D02*
X005858Y000315D01*
X005810Y000315D02*
X005810Y000605D01*
X005762Y000605D02*
X005858Y000605D01*
X005958Y000605D02*
X006151Y000315D01*
X006151Y000605D01*
X006253Y000557D02*
X006253Y000508D01*
X006301Y000460D01*
X006398Y000460D01*
X006446Y000412D01*
X006446Y000363D01*
X006398Y000315D01*
X006301Y000315D01*
X006253Y000363D01*
X006253Y000557D02*
X006301Y000605D01*
X006398Y000605D01*
X006446Y000557D01*
X005958Y000605D02*
X005958Y000315D01*
X005467Y000315D02*
X005467Y000605D01*
X006415Y001715D02*
X006415Y002005D01*
X006560Y002005D01*
X006608Y001957D01*
X006608Y001860D01*
X006560Y001812D01*
X006415Y001812D01*
X006415Y002115D02*
X006415Y002405D01*
X006560Y002405D01*
X006608Y002357D01*
X006608Y002260D01*
X006560Y002212D01*
X006415Y002212D01*
X006594Y002467D02*
X006787Y002467D01*
X006806Y002405D02*
X006710Y002405D01*
X006758Y002405D02*
X006758Y002115D01*
X006710Y002115D02*
X006806Y002115D01*
X006806Y002005D02*
X006710Y002005D01*
X006758Y002005D02*
X006758Y001715D01*
X006710Y001715D02*
X006806Y001715D01*
X006906Y001763D02*
X006954Y001715D01*
X007051Y001715D01*
X007100Y001763D01*
X007100Y001957D01*
X007051Y002005D01*
X006954Y002005D01*
X006906Y001957D01*
X006906Y001763D01*
X006954Y002115D02*
X007051Y002115D01*
X007100Y002163D01*
X007100Y002357D01*
X007051Y002405D01*
X006954Y002405D01*
X006906Y002357D01*
X006906Y002163D01*
X006954Y002115D01*
X007201Y002163D02*
X007249Y002115D01*
X007346Y002115D01*
X007394Y002163D01*
X007394Y002260D01*
X007346Y002308D01*
X007297Y002308D01*
X007201Y002260D01*
X007201Y002405D01*
X007394Y002405D01*
X007376Y002515D02*
X007376Y002805D01*
X007346Y002915D02*
X007346Y003205D01*
X007346Y003108D02*
X007201Y003108D01*
X007201Y003012D02*
X007394Y003012D01*
X007394Y003108D02*
X007346Y003108D01*
X007249Y003205D02*
X007249Y002915D01*
X007183Y002805D02*
X007183Y002515D01*
X007280Y002612D01*
X007376Y002515D01*
X007082Y002515D02*
X007082Y002805D01*
X007051Y002915D02*
X007100Y002963D01*
X007100Y003157D01*
X007051Y003205D01*
X006954Y003205D01*
X006906Y003157D01*
X006906Y002963D01*
X006954Y002915D01*
X007051Y002915D01*
X006888Y002805D02*
X006888Y002515D01*
X006888Y002660D02*
X007082Y002660D01*
X006806Y002915D02*
X006710Y002915D01*
X006758Y002915D02*
X006758Y003205D01*
X006710Y003205D02*
X006806Y003205D01*
X006806Y003315D02*
X006710Y003315D01*
X006758Y003315D02*
X006758Y003605D01*
X006710Y003605D02*
X006806Y003605D01*
X006806Y003715D02*
X006710Y003715D01*
X006758Y003715D02*
X006758Y004005D01*
X006710Y004005D02*
X006806Y004005D01*
X006906Y003957D02*
X006906Y003763D01*
X006954Y003715D01*
X007051Y003715D01*
X007100Y003763D01*
X007100Y003957D01*
X007051Y004005D01*
X006954Y004005D01*
X006906Y003957D01*
X006899Y004115D02*
X007044Y004115D01*
X007092Y004163D01*
X007092Y004357D01*
X007044Y004405D01*
X006899Y004405D01*
X006899Y004115D01*
X006798Y004212D02*
X006798Y004405D01*
X006701Y004515D02*
X006798Y004612D01*
X006798Y004805D01*
X006899Y004805D02*
X007044Y004805D01*
X007092Y004757D01*
X007092Y004563D01*
X007044Y004515D01*
X006899Y004515D01*
X006899Y004805D01*
X006899Y004915D02*
X007044Y004915D01*
X007092Y004963D01*
X007092Y005157D01*
X007044Y005205D01*
X006899Y005205D01*
X006899Y004915D01*
X006798Y005012D02*
X006798Y005205D01*
X006712Y005315D02*
X006808Y005412D01*
X006808Y005605D01*
X006910Y005605D02*
X007055Y005605D01*
X007103Y005557D01*
X007103Y005363D01*
X007055Y005315D01*
X006910Y005315D01*
X006910Y005605D01*
X006910Y005715D02*
X006910Y006005D01*
X007103Y005715D01*
X007103Y006005D01*
X007204Y006005D02*
X007349Y006005D01*
X007398Y005957D01*
X007398Y005763D01*
X007349Y005715D01*
X007204Y005715D01*
X007204Y006005D01*
X007204Y005605D02*
X007349Y005605D01*
X007398Y005557D01*
X007398Y005363D01*
X007349Y005315D01*
X007204Y005315D01*
X007204Y005605D01*
X007290Y005205D02*
X007290Y004915D01*
X007194Y004915D02*
X007387Y004915D01*
X007339Y004805D02*
X007242Y004805D01*
X007194Y004757D01*
X007339Y004805D02*
X007387Y004757D01*
X007387Y004708D01*
X007194Y004515D01*
X007387Y004515D01*
X007339Y004405D02*
X007387Y004357D01*
X007387Y004308D01*
X007339Y004260D01*
X007387Y004212D01*
X007387Y004163D01*
X007339Y004115D01*
X007242Y004115D01*
X007194Y004163D01*
X007290Y004260D02*
X007339Y004260D01*
X007339Y004405D02*
X007242Y004405D01*
X007194Y004357D01*
X007201Y004005D02*
X007394Y004005D01*
X007394Y003957D01*
X007201Y003763D01*
X007201Y003715D01*
X007297Y003557D02*
X007201Y003460D01*
X007346Y003460D01*
X007394Y003412D01*
X007394Y003363D01*
X007346Y003315D01*
X007249Y003315D01*
X007201Y003363D01*
X007201Y003460D01*
X007297Y003557D02*
X007394Y003605D01*
X007100Y003557D02*
X007100Y003363D01*
X007051Y003315D01*
X006954Y003315D01*
X006906Y003363D01*
X006906Y003557D01*
X006954Y003605D01*
X007051Y003605D01*
X007100Y003557D01*
X006701Y004115D02*
X006798Y004212D01*
X006701Y004115D02*
X006604Y004212D01*
X006604Y004405D01*
X006503Y004357D02*
X006455Y004405D01*
X006358Y004405D01*
X006310Y004357D01*
X006310Y004308D01*
X006358Y004260D01*
X006455Y004260D01*
X006503Y004212D01*
X006503Y004163D01*
X006455Y004115D01*
X006358Y004115D01*
X006310Y004163D01*
X006208Y004115D02*
X006112Y004212D01*
X006160Y004212D02*
X006015Y004212D01*
X006015Y004115D02*
X006015Y004405D01*
X006160Y004405D01*
X006208Y004357D01*
X006208Y004260D01*
X006160Y004212D01*
X006208Y004515D02*
X006112Y004612D01*
X006160Y004612D02*
X006015Y004612D01*
X006015Y004515D02*
X006015Y004805D01*
X006160Y004805D01*
X006208Y004757D01*
X006208Y004660D01*
X006160Y004612D01*
X006310Y004563D02*
X006358Y004515D01*
X006455Y004515D01*
X006503Y004563D01*
X006503Y004612D01*
X006455Y004660D01*
X006358Y004660D01*
X006310Y004708D01*
X006310Y004757D01*
X006358Y004805D01*
X006455Y004805D01*
X006503Y004757D01*
X006604Y004805D02*
X006604Y004612D01*
X006701Y004515D01*
X006701Y004915D02*
X006604Y005012D01*
X006604Y005205D01*
X006503Y005157D02*
X006455Y005205D01*
X006358Y005205D01*
X006310Y005157D01*
X006310Y005108D01*
X006358Y005060D01*
X006455Y005060D01*
X006503Y005012D01*
X006503Y004963D01*
X006455Y004915D01*
X006358Y004915D01*
X006310Y004963D01*
X006208Y004915D02*
X006112Y005012D01*
X006160Y005012D02*
X006208Y005060D01*
X006208Y005157D01*
X006160Y005205D01*
X006015Y005205D01*
X006015Y004915D01*
X006015Y005012D02*
X006160Y005012D01*
X006615Y005412D02*
X006615Y005605D01*
X006663Y005715D02*
X006760Y005715D01*
X006808Y005763D01*
X006808Y005860D01*
X006712Y005860D01*
X006808Y005957D02*
X006760Y006005D01*
X006663Y006005D01*
X006615Y005957D01*
X006615Y005763D01*
X006663Y005715D01*
X006615Y005412D02*
X006712Y005315D01*
X006798Y005012D02*
X006701Y004915D01*
X007194Y005108D02*
X007290Y005205D01*
X006560Y004005D02*
X006415Y004005D01*
X006415Y003715D01*
X006415Y003812D02*
X006560Y003812D01*
X006608Y003860D01*
X006608Y003957D01*
X006560Y004005D01*
X006560Y003605D02*
X006415Y003605D01*
X006415Y003315D01*
X006415Y003412D02*
X006560Y003412D01*
X006608Y003460D01*
X006608Y003557D01*
X006560Y003605D01*
X006560Y003205D02*
X006415Y003205D01*
X006415Y002915D01*
X006415Y003012D02*
X006560Y003012D01*
X006608Y003060D01*
X006608Y003157D01*
X006560Y003205D01*
X006492Y002805D02*
X006299Y002805D01*
X006299Y002515D01*
X006492Y002515D01*
X006396Y002660D02*
X006299Y002660D01*
X006198Y002515D02*
X006053Y002660D01*
X006004Y002612D02*
X006198Y002805D01*
X006004Y002805D02*
X006004Y002515D01*
X005903Y002515D02*
X005903Y002708D01*
X005806Y002805D01*
X005710Y002708D01*
X005710Y002515D01*
X005608Y002515D02*
X005608Y002805D01*
X005710Y002660D02*
X005903Y002660D01*
X005608Y002515D02*
X005512Y002612D01*
X005415Y002515D01*
X005415Y002805D01*
X004433Y001405D02*
X004337Y001405D01*
X004433Y001405D02*
X004482Y001357D01*
X003598Y000557D02*
X003549Y000605D01*
X003453Y000605D01*
X003404Y000557D01*
X003404Y000508D01*
X003453Y000460D01*
X003008Y004660D02*
X002815Y004660D01*
X002815Y004915D02*
X002815Y005108D01*
X002912Y005205D01*
X003008Y005108D01*
X003008Y004915D01*
X003008Y005060D02*
X002815Y005060D01*
X002815Y005315D02*
X002815Y005508D01*
X002912Y005605D01*
X003008Y005508D01*
X003008Y005315D01*
X003008Y005460D02*
X002815Y005460D01*
X002863Y005715D02*
X002960Y005715D01*
X003008Y005763D01*
X003008Y005860D01*
X002912Y005860D01*
X003008Y005957D02*
X002960Y006005D01*
X002863Y006005D01*
X002815Y005957D01*
X002815Y005763D01*
X002863Y005715D01*
X006645Y001405D02*
X006645Y001163D01*
X006694Y001115D01*
X006791Y001115D01*
X006839Y001163D01*
X006839Y001405D01*
X006940Y001405D02*
X007134Y001405D01*
X007037Y001405D02*
X007037Y001115D01*
X007346Y001715D02*
X007346Y002005D01*
X007201Y001860D01*
X007394Y001860D01*
D12*
X007500Y001900D02*
X008400Y001900D01*
X008400Y001100D01*
X008500Y001100D01*
X008500Y002100D02*
X008500Y002300D01*
X007500Y002300D01*
X007500Y002700D02*
X008500Y002700D01*
X008500Y003100D01*
X008400Y003100D02*
X008400Y004100D01*
X008500Y004100D01*
X008200Y003900D02*
X008200Y006100D01*
X008500Y006100D01*
X007800Y005500D02*
X007800Y010100D01*
X008500Y010100D01*
X008500Y009100D02*
X007900Y009100D01*
X007900Y005100D01*
X007500Y005100D01*
X007500Y004700D02*
X008000Y004700D01*
X008000Y008100D01*
X008500Y008100D01*
X008500Y007100D02*
X008100Y007100D01*
X008100Y004300D01*
X007500Y004300D01*
X007500Y003900D02*
X008200Y003900D01*
X008300Y003500D02*
X008300Y005100D01*
X008500Y005100D01*
X007800Y005500D02*
X007500Y005500D01*
X007500Y005900D02*
X007700Y005900D01*
X007700Y011100D01*
X008500Y011100D01*
X008300Y003500D02*
X007500Y003500D01*
X007500Y003100D02*
X008400Y003100D01*
X002700Y003100D02*
X001800Y003100D01*
X001800Y004100D01*
X001700Y004100D01*
X002000Y003900D02*
X002700Y003900D01*
X002700Y004300D02*
X002100Y004300D01*
X002100Y007100D01*
X001700Y007100D01*
X001700Y006100D02*
X002000Y006100D01*
X002000Y003900D01*
X001900Y003500D02*
X002700Y003500D01*
X002700Y002700D02*
X001700Y002700D01*
X001700Y003100D01*
X001900Y003500D02*
X001900Y005100D01*
X001700Y005100D01*
X002200Y004600D02*
X002700Y004600D01*
X002700Y005100D02*
X002300Y005100D01*
X002300Y009100D01*
X001700Y009100D01*
X001700Y008100D02*
X002200Y008100D01*
X002200Y004600D01*
X002400Y005500D02*
X002700Y005500D01*
X002700Y005900D02*
X002500Y005900D01*
X002500Y011100D01*
X001700Y011100D01*
X001700Y010100D02*
X002400Y010100D01*
X002400Y005500D01*
X002700Y002300D02*
X001700Y002300D01*
X001700Y002100D01*
X001800Y001900D02*
X001800Y001200D01*
X001700Y001200D01*
X001800Y001900D02*
X002700Y001900D01*
D13*
X001600Y001850D02*
X001350Y001600D01*
X001600Y001350D01*
X001600Y000850D01*
X001350Y000600D01*
X000850Y000600D01*
X000600Y000850D01*
X000600Y001350D01*
X000850Y001600D01*
X000600Y001850D01*
X000600Y002350D01*
X000850Y002600D01*
X000600Y002850D01*
X000600Y003350D01*
X000850Y003600D01*
X000600Y003850D01*
X000600Y004350D01*
X000850Y004600D01*
X000600Y004850D01*
X000600Y005350D01*
X000850Y005600D01*
X000600Y005850D01*
X000600Y006350D01*
X000850Y006600D01*
X000600Y006850D01*
X000600Y007350D01*
X000850Y007600D01*
X000600Y007850D01*
X000600Y008350D01*
X000850Y008600D01*
X000600Y008850D01*
X000600Y009350D01*
X000850Y009600D01*
X000600Y009850D01*
X000600Y010350D01*
X000850Y010600D01*
X000600Y010850D01*
X000600Y011350D01*
X000850Y011600D01*
X001350Y011600D01*
X001600Y011350D01*
X001600Y010850D01*
X001350Y010600D01*
X001600Y010350D01*
X001600Y009850D01*
X001350Y009600D01*
X001600Y009350D01*
X001600Y008850D01*
X001350Y008600D01*
X001600Y008350D01*
X001600Y007850D01*
X001350Y007600D01*
X001600Y007350D01*
X001600Y006850D01*
X001350Y006600D01*
X001600Y006350D01*
X001600Y005850D01*
X001350Y005600D01*
X001600Y005350D01*
X001600Y004850D01*
X001350Y004600D01*
X001600Y004350D01*
X001600Y003850D01*
X001350Y003600D01*
X001600Y003350D01*
X001600Y002850D01*
X001350Y002600D01*
X001600Y002350D01*
X001600Y001850D01*
X008600Y001850D02*
X008600Y002350D01*
X008850Y002600D01*
X008600Y002850D01*
X008600Y003350D01*
X008850Y003600D01*
X008600Y003850D01*
X008600Y004350D01*
X008850Y004600D01*
X008600Y004850D01*
X008600Y005350D01*
X008850Y005600D01*
X008600Y005850D01*
X008600Y006350D01*
X008850Y006600D01*
X008600Y006850D01*
X008600Y007350D01*
X008850Y007600D01*
X008600Y007850D01*
X008600Y008350D01*
X008850Y008600D01*
X008600Y008850D01*
X008600Y009350D01*
X008850Y009600D01*
X008600Y009850D01*
X008600Y010350D01*
X008850Y010600D01*
X008600Y010850D01*
X008600Y011350D01*
X008850Y011600D01*
X009350Y011600D01*
X009600Y011350D01*
X009600Y010850D01*
X009350Y010600D01*
X009600Y010350D01*
X009600Y009850D01*
X009350Y009600D01*
X009600Y009350D01*
X009600Y008850D01*
X009350Y008600D01*
X009600Y008350D01*
X009600Y007850D01*
X009350Y007600D01*
X009600Y007350D01*
X009600Y006850D01*
X009350Y006600D01*
X009600Y006350D01*
X009600Y005850D01*
X009350Y005600D01*
X009600Y005350D01*
X009600Y004850D01*
X009350Y004600D01*
X009600Y004350D01*
X009600Y003850D01*
X009350Y003600D01*
X009600Y003350D01*
X009600Y002850D01*
X009350Y002600D01*
X009600Y002350D01*
X009600Y001850D01*
X009350Y001600D01*
X009600Y001350D01*
X009600Y000850D01*
X009350Y000600D01*
X008850Y000600D01*
X008600Y000850D01*
X008600Y001350D01*
X008850Y001600D01*
X008600Y001850D01*
D14*
X007378Y006600D02*
X007378Y012328D01*
X007378Y014277D01*
X002850Y014277D01*
X002850Y012328D01*
X002850Y006600D01*
X007378Y006600D01*
X007378Y012328D02*
X002850Y012328D01*
M02*
