G75*
%MOIN*%
%OFA0B0*%
%FSLAX24Y24*%
%IPPOS*%
%LPD*%
%AMOC8*
5,1,8,0,0,1.08239X$1,22.5*
%
%ADD10C,0.0000*%
%ADD11C,0.0740*%
%ADD12R,0.0591X0.0315*%
%ADD13R,0.0315X0.0591*%
%ADD14C,0.0394*%
%ADD15C,0.0100*%
%ADD16C,0.0400*%
D10*
X000100Y000100D02*
X000100Y012100D01*
X010100Y012100D01*
X010100Y000100D02*
X000100Y000100D01*
X010100Y000100D02*
X010100Y012100D01*
D11*
X009100Y011100D03*
X009100Y010100D03*
X009100Y009100D03*
X009100Y008100D03*
X009100Y007100D03*
X009100Y006100D03*
X009100Y005100D03*
X009100Y004100D03*
X009100Y003100D03*
X009100Y002100D03*
X009100Y001100D03*
X001100Y001100D03*
X001100Y002100D03*
X001100Y003100D03*
X001100Y004100D03*
X001100Y005100D03*
X001100Y006100D03*
X001100Y007100D03*
X001100Y008100D03*
X001100Y009100D03*
X001100Y010100D03*
X001100Y011100D03*
D12*
X002948Y010891D03*
X002948Y010419D03*
X002948Y009946D03*
X002948Y009474D03*
X002948Y009002D03*
X002948Y008529D03*
X002948Y008057D03*
X002948Y007584D03*
X007279Y007584D03*
X007279Y008057D03*
X007279Y008529D03*
X007279Y009002D03*
X007279Y009474D03*
X007279Y009946D03*
X007279Y010419D03*
X007279Y010891D03*
D13*
X006295Y006698D03*
X005822Y006698D03*
X005350Y006698D03*
X004878Y006698D03*
X004405Y006698D03*
X003933Y006698D03*
D14*
X002850Y006600D03*
X007378Y006600D03*
D15*
X007378Y006378D01*
X007100Y006100D01*
X007700Y005500D02*
X007700Y007163D01*
X007279Y007584D01*
X007279Y008057D02*
X007300Y008100D01*
X007800Y008100D01*
X008000Y007900D01*
X008000Y006200D01*
X009100Y005100D01*
X009100Y004100D02*
X007700Y005500D01*
X009100Y006300D02*
X008300Y007100D01*
X008300Y008200D01*
X008000Y008500D01*
X007308Y008500D01*
X007279Y008529D01*
X007281Y009000D02*
X007279Y009002D01*
X007281Y009000D02*
X008000Y009000D01*
X008600Y008400D01*
X008600Y007600D01*
X009100Y007100D01*
X009100Y006300D02*
X009100Y006100D01*
X009100Y008100D02*
X009100Y008400D01*
X008000Y009500D01*
X007305Y009500D01*
X007279Y009474D01*
X007326Y009900D02*
X007279Y009946D01*
X007326Y009900D02*
X008400Y009900D01*
X009100Y009200D01*
X009100Y009100D01*
X009100Y010100D02*
X009100Y010200D01*
X008900Y010400D01*
X007298Y010400D01*
X007279Y010419D01*
X007279Y010891D02*
X007288Y010900D01*
X008900Y010900D01*
X009100Y011100D01*
X006295Y006698D02*
X006295Y005905D01*
X009100Y003100D01*
X009100Y002100D02*
X005822Y005378D01*
X005822Y006698D01*
X005350Y006698D02*
X005350Y004850D01*
X009100Y001100D01*
X004878Y004878D02*
X001100Y001100D01*
X001100Y002100D02*
X004405Y005405D01*
X004405Y006698D01*
X004878Y006698D02*
X004878Y004878D01*
X003933Y005933D02*
X001100Y003100D01*
X001100Y004100D02*
X002500Y005516D01*
X002500Y007300D01*
X002784Y007584D01*
X002948Y007584D01*
X002948Y008057D02*
X002357Y008057D01*
X002200Y007900D01*
X002200Y006200D01*
X002184Y006200D01*
X001100Y005100D01*
X001100Y005116D01*
X001100Y006100D02*
X001100Y006300D01*
X001900Y007100D01*
X001900Y008200D01*
X002200Y008500D01*
X002919Y008500D01*
X002948Y008529D01*
X002947Y009000D02*
X002948Y009002D01*
X002947Y009000D02*
X002200Y009000D01*
X001600Y008400D01*
X001600Y007600D01*
X001100Y007100D01*
X001100Y008100D02*
X001084Y008384D01*
X002200Y009500D01*
X002922Y009500D01*
X002948Y009474D01*
X002902Y009900D02*
X002948Y009946D01*
X002902Y009900D02*
X001800Y009900D01*
X001084Y009184D01*
X001100Y009100D01*
X001100Y010100D02*
X001084Y010184D01*
X001300Y010400D01*
X002930Y010400D01*
X002948Y010419D01*
X002948Y010891D02*
X001293Y010891D01*
X001100Y011100D01*
X003933Y006698D02*
X003933Y005933D01*
X003100Y006100D02*
X002850Y006350D01*
X002850Y006600D01*
D16*
X003100Y006100D03*
X007100Y006100D03*
M02*
