G75*
%MOIN*%
%OFA0B0*%
%FSLAX24Y24*%
%IPPOS*%
%LPD*%
%AMOC8*
5,1,8,0,0,1.08239X$1,22.5*
%
%ADD10C,0.0000*%
%ADD11C,0.0780*%
%ADD12R,0.0631X0.0355*%
%ADD13R,0.0355X0.0631*%
%ADD14C,0.0434*%
D10*
X000100Y000100D02*
X000100Y012100D01*
X010100Y012100D01*
X010100Y000100D02*
X000100Y000100D01*
X010100Y000100D02*
X010100Y012100D01*
D11*
X009100Y011100D03*
X009100Y010100D03*
X009100Y009100D03*
X009100Y008100D03*
X009100Y007100D03*
X009100Y006100D03*
X009100Y005100D03*
X009100Y004100D03*
X009100Y003100D03*
X009100Y002100D03*
X009100Y001100D03*
X001100Y001100D03*
X001100Y002100D03*
X001100Y003100D03*
X001100Y004100D03*
X001100Y005100D03*
X001100Y006100D03*
X001100Y007100D03*
X001100Y008100D03*
X001100Y009100D03*
X001100Y010100D03*
X001100Y011100D03*
D12*
X002948Y010891D03*
X002948Y010419D03*
X002948Y009946D03*
X002948Y009474D03*
X002948Y009002D03*
X002948Y008529D03*
X002948Y008057D03*
X002948Y007584D03*
X007279Y007584D03*
X007279Y008057D03*
X007279Y008529D03*
X007279Y009002D03*
X007279Y009474D03*
X007279Y009946D03*
X007279Y010419D03*
X007279Y010891D03*
D13*
X006295Y006698D03*
X005822Y006698D03*
X005350Y006698D03*
X004878Y006698D03*
X004405Y006698D03*
X003933Y006698D03*
D14*
X002850Y006600D03*
X007378Y006600D03*
M02*
