G75*
%MOIN*%
%OFA0B0*%
%FSLAX24Y24*%
%IPPOS*%
%LPD*%
%AMOC8*
5,1,8,0,0,1.08239X$1,22.5*
%
%ADD10C,0.0000*%
%ADD11C,0.0740*%
%ADD12C,0.0100*%
%ADD13C,0.0400*%
D10*
X000100Y000100D02*
X000100Y012100D01*
X010100Y012100D01*
X010100Y000100D02*
X000100Y000100D01*
X010100Y000100D02*
X010100Y012100D01*
D11*
X009100Y011100D03*
X009100Y010100D03*
X009100Y009100D03*
X009100Y008100D03*
X009100Y007100D03*
X009100Y006100D03*
X009100Y005100D03*
X009100Y004100D03*
X009100Y003100D03*
X009100Y002100D03*
X009100Y001100D03*
X001100Y001100D03*
X001100Y002100D03*
X001100Y003100D03*
X001100Y004100D03*
X001100Y005100D03*
X001100Y006100D03*
X001100Y007100D03*
X001100Y008100D03*
X001100Y009100D03*
X001100Y010100D03*
X001100Y011100D03*
D12*
X001150Y011132D02*
X009050Y011132D01*
X009050Y011150D02*
X009050Y011050D01*
X009150Y011050D01*
X009150Y011150D01*
X009619Y011150D01*
X009607Y011222D01*
X009582Y011300D01*
X009545Y011373D01*
X009497Y011439D01*
X009439Y011497D01*
X009373Y011545D01*
X009300Y011582D01*
X009222Y011607D01*
X009150Y011619D01*
X009150Y011150D01*
X009050Y011150D01*
X009050Y011619D01*
X008978Y011607D01*
X008900Y011582D01*
X008827Y011545D01*
X008761Y011497D01*
X008703Y011439D01*
X008655Y011373D01*
X008618Y011300D01*
X008593Y011222D01*
X008581Y011150D01*
X009050Y011150D01*
X009050Y011231D02*
X009150Y011231D01*
X009150Y011329D02*
X009050Y011329D01*
X009050Y011428D02*
X009150Y011428D01*
X009150Y011526D02*
X009050Y011526D01*
X008802Y011526D02*
X001398Y011526D01*
X001373Y011545D02*
X001300Y011582D01*
X001222Y011607D01*
X001150Y011619D01*
X001150Y011150D01*
X001619Y011150D01*
X001607Y011222D01*
X001582Y011300D01*
X001545Y011373D01*
X001497Y011439D01*
X001439Y011497D01*
X001373Y011545D01*
X001505Y011428D02*
X008695Y011428D01*
X008633Y011329D02*
X001567Y011329D01*
X001604Y011231D02*
X008596Y011231D01*
X008581Y011050D02*
X008593Y010978D01*
X008618Y010900D01*
X008655Y010827D01*
X008703Y010761D01*
X008761Y010703D01*
X008827Y010655D01*
X008900Y010618D01*
X008978Y010593D01*
X009050Y010581D01*
X009050Y011050D01*
X008581Y011050D01*
X008584Y011034D02*
X001616Y011034D01*
X001619Y011050D02*
X001150Y011050D01*
X001150Y011150D01*
X001050Y011150D01*
X001050Y011619D01*
X000978Y011607D01*
X000900Y011582D01*
X000827Y011545D01*
X000761Y011497D01*
X000703Y011439D01*
X000655Y011373D01*
X000618Y011300D01*
X000593Y011222D01*
X000581Y011150D01*
X001050Y011150D01*
X001050Y011050D01*
X001150Y011050D01*
X001150Y010581D01*
X001222Y010593D01*
X001300Y010618D01*
X001373Y010655D01*
X001439Y010703D01*
X001497Y010761D01*
X001545Y010827D01*
X001582Y010900D01*
X001607Y010978D01*
X001619Y011050D01*
X001593Y010935D02*
X008607Y010935D01*
X008651Y010837D02*
X001549Y010837D01*
X001473Y010738D02*
X008727Y010738D01*
X008858Y010640D02*
X001342Y010640D01*
X001290Y010541D02*
X008910Y010541D01*
X008828Y010507D02*
X009005Y010580D01*
X009195Y010580D01*
X009372Y010507D01*
X009507Y010372D01*
X009580Y010195D01*
X009580Y010005D01*
X009507Y009828D01*
X009372Y009693D01*
X009195Y009620D01*
X009005Y009620D01*
X008828Y009693D01*
X008693Y009828D01*
X008620Y010005D01*
X008620Y010195D01*
X008693Y010372D01*
X008828Y010507D01*
X008764Y010443D02*
X001436Y010443D01*
X001372Y010507D02*
X001507Y010372D01*
X001580Y010195D01*
X001580Y010005D01*
X001507Y009828D01*
X001372Y009693D01*
X001195Y009620D01*
X001005Y009620D01*
X000828Y009693D01*
X000693Y009828D01*
X000620Y010005D01*
X000620Y010195D01*
X000693Y010372D01*
X000828Y010507D01*
X001005Y010580D01*
X001195Y010580D01*
X001372Y010507D01*
X001518Y010344D02*
X008682Y010344D01*
X008641Y010246D02*
X001559Y010246D01*
X001580Y010147D02*
X008620Y010147D01*
X008620Y010049D02*
X001580Y010049D01*
X001557Y009950D02*
X008643Y009950D01*
X008683Y009852D02*
X001517Y009852D01*
X001432Y009753D02*
X008768Y009753D01*
X008828Y009507D02*
X008693Y009372D01*
X008620Y009195D01*
X008620Y009005D01*
X008693Y008828D01*
X008828Y008693D01*
X009005Y008620D01*
X009195Y008620D01*
X009372Y008693D01*
X009507Y008828D01*
X009580Y009005D01*
X009580Y009195D01*
X009507Y009372D01*
X009372Y009507D01*
X009195Y009580D01*
X009005Y009580D01*
X008828Y009507D01*
X008779Y009458D02*
X001421Y009458D01*
X001372Y009507D02*
X001195Y009580D01*
X001005Y009580D01*
X000828Y009507D01*
X000693Y009372D01*
X000620Y009195D01*
X000620Y009005D01*
X000693Y008828D01*
X000828Y008693D01*
X001005Y008620D01*
X001195Y008620D01*
X001372Y008693D01*
X001507Y008828D01*
X001580Y009005D01*
X001580Y009195D01*
X001507Y009372D01*
X001372Y009507D01*
X001253Y009556D02*
X008947Y009556D01*
X008921Y009655D02*
X001279Y009655D01*
X000947Y009556D02*
X000250Y009556D01*
X000250Y009458D02*
X000779Y009458D01*
X000688Y009359D02*
X000250Y009359D01*
X000250Y009261D02*
X000647Y009261D01*
X000620Y009162D02*
X000250Y009162D01*
X000250Y009064D02*
X000620Y009064D01*
X000636Y008965D02*
X000250Y008965D01*
X000250Y008867D02*
X000677Y008867D01*
X000753Y008768D02*
X000250Y008768D01*
X000250Y008670D02*
X000885Y008670D01*
X000983Y008571D02*
X000250Y008571D01*
X000250Y008473D02*
X000794Y008473D01*
X000828Y008507D02*
X000693Y008372D01*
X000620Y008195D01*
X000620Y008005D01*
X000693Y007828D01*
X000828Y007693D01*
X001005Y007620D01*
X001195Y007620D01*
X001372Y007693D01*
X001507Y007828D01*
X001580Y008005D01*
X001580Y008195D01*
X001507Y008372D01*
X001372Y008507D01*
X001195Y008580D01*
X001005Y008580D01*
X000828Y008507D01*
X000695Y008374D02*
X000250Y008374D01*
X000250Y008276D02*
X000653Y008276D01*
X000620Y008177D02*
X000250Y008177D01*
X000250Y008079D02*
X000620Y008079D01*
X000630Y007980D02*
X000250Y007980D01*
X000250Y007882D02*
X000671Y007882D01*
X000738Y007783D02*
X000250Y007783D01*
X000250Y007685D02*
X000849Y007685D01*
X000828Y007507D02*
X000693Y007372D01*
X000620Y007195D01*
X000620Y007005D01*
X000693Y006828D01*
X000828Y006693D01*
X001005Y006620D01*
X001195Y006620D01*
X001372Y006693D01*
X001507Y006828D01*
X001580Y007005D01*
X001580Y007195D01*
X001507Y007372D01*
X001372Y007507D01*
X001195Y007580D01*
X001005Y007580D01*
X000828Y007507D01*
X000809Y007488D02*
X000250Y007488D01*
X000250Y007586D02*
X009977Y007586D01*
X009977Y007488D02*
X009391Y007488D01*
X009372Y007507D02*
X009195Y007580D01*
X009005Y007580D01*
X008828Y007507D01*
X008693Y007372D01*
X008620Y007195D01*
X008620Y007005D01*
X008693Y006828D01*
X008828Y006693D01*
X009005Y006620D01*
X009195Y006620D01*
X009372Y006693D01*
X009507Y006828D01*
X009580Y007005D01*
X009580Y007195D01*
X009507Y007372D01*
X009372Y007507D01*
X009490Y007389D02*
X009978Y007389D01*
X009979Y007291D02*
X009541Y007291D01*
X009580Y007192D02*
X009979Y007192D01*
X009980Y007094D02*
X009580Y007094D01*
X009576Y006995D02*
X009980Y006995D01*
X009981Y006897D02*
X009535Y006897D01*
X009477Y006798D02*
X009982Y006798D01*
X009982Y006700D02*
X009378Y006700D01*
X009372Y006507D02*
X009195Y006580D01*
X009005Y006580D01*
X008828Y006507D01*
X008693Y006372D01*
X008620Y006195D01*
X008620Y006005D01*
X008693Y005828D01*
X008828Y005693D01*
X009005Y005620D01*
X009195Y005620D01*
X009372Y005693D01*
X009507Y005828D01*
X009580Y006005D01*
X009580Y006195D01*
X009507Y006372D01*
X009372Y006507D01*
X009376Y006503D02*
X009983Y006503D01*
X009983Y006601D02*
X000250Y006601D01*
X000250Y006503D02*
X000824Y006503D01*
X000828Y006507D02*
X000693Y006372D01*
X000620Y006195D01*
X000620Y006005D01*
X000693Y005828D01*
X000828Y005693D01*
X001005Y005620D01*
X001195Y005620D01*
X001372Y005693D01*
X001507Y005828D01*
X001580Y006005D01*
X001580Y006195D01*
X001507Y006372D01*
X001372Y006507D01*
X001195Y006580D01*
X001005Y006580D01*
X000828Y006507D01*
X000725Y006404D02*
X000250Y006404D01*
X000250Y006306D02*
X000666Y006306D01*
X000625Y006207D02*
X000250Y006207D01*
X000250Y006109D02*
X000620Y006109D01*
X000620Y006010D02*
X000250Y006010D01*
X000250Y005912D02*
X000659Y005912D01*
X000708Y005813D02*
X000250Y005813D01*
X000250Y005715D02*
X000807Y005715D01*
X000854Y005518D02*
X000250Y005518D01*
X000250Y005616D02*
X009983Y005616D01*
X009982Y005518D02*
X009346Y005518D01*
X009372Y005507D02*
X009195Y005580D01*
X009005Y005580D01*
X008828Y005507D01*
X008693Y005372D01*
X008620Y005195D01*
X008620Y005005D01*
X008693Y004828D01*
X008828Y004693D01*
X009005Y004620D01*
X009195Y004620D01*
X009372Y004693D01*
X009507Y004828D01*
X009580Y005005D01*
X009580Y005195D01*
X009507Y005372D01*
X009372Y005507D01*
X009460Y005419D02*
X009982Y005419D01*
X009981Y005321D02*
X009528Y005321D01*
X009569Y005222D02*
X009981Y005222D01*
X009980Y005124D02*
X009580Y005124D01*
X009580Y005025D02*
X009979Y005025D01*
X009979Y004927D02*
X009548Y004927D01*
X009507Y004828D02*
X009978Y004828D01*
X009978Y004730D02*
X009408Y004730D01*
X009222Y004631D02*
X009977Y004631D01*
X009976Y004533D02*
X009310Y004533D01*
X009372Y004507D02*
X009195Y004580D01*
X009005Y004580D01*
X008828Y004507D01*
X008693Y004372D01*
X008620Y004195D01*
X008620Y004005D01*
X008693Y003828D01*
X008828Y003693D01*
X009005Y003620D01*
X009195Y003620D01*
X009372Y003693D01*
X009507Y003828D01*
X009580Y004005D01*
X009580Y004195D01*
X009507Y004372D01*
X009372Y004507D01*
X009445Y004434D02*
X009976Y004434D01*
X009975Y004336D02*
X009522Y004336D01*
X009563Y004237D02*
X009975Y004237D01*
X009974Y004139D02*
X009580Y004139D01*
X009580Y004040D02*
X009973Y004040D01*
X009973Y003942D02*
X009554Y003942D01*
X009513Y003843D02*
X009972Y003843D01*
X009972Y003745D02*
X009423Y003745D01*
X009258Y003646D02*
X009971Y003646D01*
X009971Y003548D02*
X009274Y003548D01*
X009195Y003580D02*
X009005Y003580D01*
X008828Y003507D01*
X008693Y003372D01*
X008620Y003195D01*
X008620Y003005D01*
X008693Y002828D01*
X008828Y002693D01*
X009005Y002620D01*
X009195Y002620D01*
X009372Y002693D01*
X009507Y002828D01*
X009580Y003005D01*
X009580Y003195D01*
X009507Y003372D01*
X009372Y003507D01*
X009195Y003580D01*
X008942Y003646D02*
X001258Y003646D01*
X001195Y003620D02*
X001372Y003693D01*
X001507Y003828D01*
X001580Y004005D01*
X001580Y004195D01*
X001507Y004372D01*
X001372Y004507D01*
X001195Y004580D01*
X001005Y004580D01*
X000828Y004507D01*
X000693Y004372D01*
X000620Y004195D01*
X000620Y004005D01*
X000693Y003828D01*
X000828Y003693D01*
X001005Y003620D01*
X001195Y003620D01*
X001195Y003580D02*
X001005Y003580D01*
X000828Y003507D01*
X000693Y003372D01*
X000620Y003195D01*
X000620Y003005D01*
X000693Y002828D01*
X000828Y002693D01*
X001005Y002620D01*
X001195Y002620D01*
X001372Y002693D01*
X001507Y002828D01*
X001580Y003005D01*
X001580Y003195D01*
X001507Y003372D01*
X001372Y003507D01*
X001195Y003580D01*
X001274Y003548D02*
X008926Y003548D01*
X008770Y003449D02*
X001430Y003449D01*
X001516Y003351D02*
X008684Y003351D01*
X008643Y003252D02*
X001557Y003252D01*
X001580Y003154D02*
X008620Y003154D01*
X008620Y003055D02*
X001580Y003055D01*
X001560Y002957D02*
X008640Y002957D01*
X008681Y002858D02*
X001519Y002858D01*
X001438Y002760D02*
X008762Y002760D01*
X008906Y002661D02*
X001294Y002661D01*
X001238Y002563D02*
X008962Y002563D01*
X009005Y002580D02*
X008828Y002507D01*
X008693Y002372D01*
X008620Y002195D01*
X008620Y002005D01*
X008693Y001828D01*
X008828Y001693D01*
X009005Y001620D01*
X009195Y001620D01*
X009372Y001693D01*
X009507Y001828D01*
X009580Y002005D01*
X009580Y002195D01*
X009507Y002372D01*
X009372Y002507D01*
X009195Y002580D01*
X009005Y002580D01*
X008785Y002464D02*
X001415Y002464D01*
X001372Y002507D02*
X001195Y002580D01*
X001005Y002580D01*
X000828Y002507D01*
X000693Y002372D01*
X000620Y002195D01*
X000620Y002005D01*
X000693Y001828D01*
X000828Y001693D01*
X001005Y001620D01*
X001195Y001620D01*
X001372Y001693D01*
X001507Y001828D01*
X001580Y002005D01*
X001580Y002195D01*
X001507Y002372D01*
X001372Y002507D01*
X001510Y002366D02*
X008690Y002366D01*
X008650Y002267D02*
X001550Y002267D01*
X001580Y002169D02*
X008620Y002169D01*
X008620Y002070D02*
X001580Y002070D01*
X001566Y001972D02*
X008634Y001972D01*
X008674Y001873D02*
X001526Y001873D01*
X001453Y001775D02*
X008747Y001775D01*
X008869Y001676D02*
X001331Y001676D01*
X001195Y001580D02*
X001372Y001507D01*
X001507Y001372D01*
X001580Y001195D01*
X001580Y001005D01*
X001507Y000828D01*
X001372Y000693D01*
X001195Y000620D01*
X001005Y000620D01*
X000828Y000693D01*
X000693Y000828D01*
X000620Y001005D01*
X000620Y001195D01*
X000693Y001372D01*
X000828Y001507D01*
X001005Y001580D01*
X001195Y001580D01*
X001202Y001578D02*
X008998Y001578D01*
X009005Y001580D02*
X008828Y001507D01*
X008693Y001372D01*
X008620Y001195D01*
X008620Y001005D01*
X008693Y000828D01*
X008828Y000693D01*
X009005Y000620D01*
X009195Y000620D01*
X009372Y000693D01*
X009507Y000828D01*
X009580Y001005D01*
X009580Y001195D01*
X009507Y001372D01*
X009372Y001507D01*
X009195Y001580D01*
X009005Y001580D01*
X009202Y001578D02*
X009959Y001578D01*
X009959Y001676D02*
X009331Y001676D01*
X009453Y001775D02*
X009960Y001775D01*
X009961Y001873D02*
X009526Y001873D01*
X009566Y001972D02*
X009961Y001972D01*
X009962Y002070D02*
X009580Y002070D01*
X009580Y002169D02*
X009962Y002169D01*
X009963Y002267D02*
X009550Y002267D01*
X009510Y002366D02*
X009963Y002366D01*
X009964Y002464D02*
X009415Y002464D01*
X009238Y002563D02*
X009965Y002563D01*
X009965Y002661D02*
X009294Y002661D01*
X009438Y002760D02*
X009966Y002760D01*
X009966Y002858D02*
X009519Y002858D01*
X009560Y002957D02*
X009967Y002957D01*
X009968Y003055D02*
X009580Y003055D01*
X009580Y003154D02*
X009968Y003154D01*
X009969Y003252D02*
X009557Y003252D01*
X009516Y003351D02*
X009969Y003351D01*
X009970Y003449D02*
X009430Y003449D01*
X008777Y003745D02*
X001423Y003745D01*
X001513Y003843D02*
X008687Y003843D01*
X008646Y003942D02*
X001554Y003942D01*
X001580Y004040D02*
X008620Y004040D01*
X008620Y004139D02*
X001580Y004139D01*
X001563Y004237D02*
X008637Y004237D01*
X008678Y004336D02*
X001522Y004336D01*
X001445Y004434D02*
X008755Y004434D01*
X008890Y004533D02*
X001310Y004533D01*
X001222Y004631D02*
X008978Y004631D01*
X008792Y004730D02*
X001408Y004730D01*
X001372Y004693D02*
X001507Y004828D01*
X001580Y005005D01*
X001580Y005195D01*
X001507Y005372D01*
X001372Y005507D01*
X001195Y005580D01*
X001005Y005580D01*
X000828Y005507D01*
X000693Y005372D01*
X000620Y005195D01*
X000620Y005005D01*
X000693Y004828D01*
X000828Y004693D01*
X001005Y004620D01*
X001195Y004620D01*
X001372Y004693D01*
X001507Y004828D02*
X008693Y004828D01*
X008652Y004927D02*
X001548Y004927D01*
X001580Y005025D02*
X008620Y005025D01*
X008620Y005124D02*
X001580Y005124D01*
X001569Y005222D02*
X008631Y005222D01*
X008672Y005321D02*
X001528Y005321D01*
X001460Y005419D02*
X008740Y005419D01*
X008854Y005518D02*
X001346Y005518D01*
X001393Y005715D02*
X008807Y005715D01*
X008708Y005813D02*
X001492Y005813D01*
X001541Y005912D02*
X008659Y005912D01*
X008620Y006010D02*
X001580Y006010D01*
X001580Y006109D02*
X008620Y006109D01*
X008625Y006207D02*
X001575Y006207D01*
X001534Y006306D02*
X008666Y006306D01*
X008725Y006404D02*
X001475Y006404D01*
X001376Y006503D02*
X008824Y006503D01*
X008822Y006700D02*
X001378Y006700D01*
X001477Y006798D02*
X008723Y006798D01*
X008665Y006897D02*
X001535Y006897D01*
X001576Y006995D02*
X008624Y006995D01*
X008620Y007094D02*
X001580Y007094D01*
X001580Y007192D02*
X008620Y007192D01*
X008659Y007291D02*
X001541Y007291D01*
X001490Y007389D02*
X008710Y007389D01*
X008809Y007488D02*
X001391Y007488D01*
X001351Y007685D02*
X008849Y007685D01*
X008828Y007693D02*
X009005Y007620D01*
X009195Y007620D01*
X009372Y007693D01*
X009507Y007828D01*
X009580Y008005D01*
X009580Y008195D01*
X009507Y008372D01*
X009372Y008507D01*
X009195Y008580D01*
X009005Y008580D01*
X008828Y008507D01*
X008693Y008372D01*
X008620Y008195D01*
X008620Y008005D01*
X008693Y007828D01*
X008828Y007693D01*
X008738Y007783D02*
X001462Y007783D01*
X001529Y007882D02*
X008671Y007882D01*
X008630Y007980D02*
X001570Y007980D01*
X001580Y008079D02*
X008620Y008079D01*
X008620Y008177D02*
X001580Y008177D01*
X001547Y008276D02*
X008653Y008276D01*
X008695Y008374D02*
X001505Y008374D01*
X001406Y008473D02*
X008794Y008473D01*
X008983Y008571D02*
X001217Y008571D01*
X001315Y008670D02*
X008885Y008670D01*
X008753Y008768D02*
X001447Y008768D01*
X001523Y008867D02*
X008677Y008867D01*
X008636Y008965D02*
X001564Y008965D01*
X001580Y009064D02*
X008620Y009064D01*
X008620Y009162D02*
X001580Y009162D01*
X001553Y009261D02*
X008647Y009261D01*
X008688Y009359D02*
X001512Y009359D01*
X000921Y009655D02*
X000250Y009655D01*
X000250Y009753D02*
X000768Y009753D01*
X000683Y009852D02*
X000250Y009852D01*
X000250Y009950D02*
X000643Y009950D01*
X000620Y010049D02*
X000250Y010049D01*
X000250Y010147D02*
X000620Y010147D01*
X000641Y010246D02*
X000250Y010246D01*
X000250Y010344D02*
X000682Y010344D01*
X000764Y010443D02*
X000250Y010443D01*
X000250Y010541D02*
X000910Y010541D01*
X000900Y010618D02*
X000978Y010593D01*
X001050Y010581D01*
X001050Y011050D01*
X000581Y011050D01*
X000593Y010978D01*
X000618Y010900D01*
X000655Y010827D01*
X000703Y010761D01*
X000761Y010703D01*
X000827Y010655D01*
X000900Y010618D01*
X000858Y010640D02*
X000250Y010640D01*
X000250Y010738D02*
X000727Y010738D01*
X000651Y010837D02*
X000250Y010837D01*
X000250Y010935D02*
X000607Y010935D01*
X000584Y011034D02*
X000250Y011034D01*
X000250Y011132D02*
X001050Y011132D01*
X001050Y011034D02*
X001150Y011034D01*
X001150Y010935D02*
X001050Y010935D01*
X001050Y010837D02*
X001150Y010837D01*
X001150Y010738D02*
X001050Y010738D01*
X001050Y010640D02*
X001150Y010640D01*
X001150Y011231D02*
X001050Y011231D01*
X001050Y011329D02*
X001150Y011329D01*
X001150Y011428D02*
X001050Y011428D01*
X001050Y011526D02*
X001150Y011526D01*
X000802Y011526D02*
X000250Y011526D01*
X000250Y011428D02*
X000695Y011428D01*
X000633Y011329D02*
X000250Y011329D01*
X000250Y011231D02*
X000596Y011231D01*
X000250Y011625D02*
X009953Y011625D01*
X009952Y011723D02*
X000250Y011723D01*
X000250Y011822D02*
X009952Y011822D01*
X009951Y011920D02*
X000250Y011920D01*
X000250Y011950D02*
X009951Y011950D01*
X009986Y006100D01*
X009951Y000250D01*
X000250Y000250D01*
X000250Y011950D01*
X000250Y007389D02*
X000710Y007389D01*
X000659Y007291D02*
X000250Y007291D01*
X000250Y007192D02*
X000620Y007192D01*
X000620Y007094D02*
X000250Y007094D01*
X000250Y006995D02*
X000624Y006995D01*
X000665Y006897D02*
X000250Y006897D01*
X000250Y006798D02*
X000723Y006798D01*
X000822Y006700D02*
X000250Y006700D01*
X000250Y005419D02*
X000740Y005419D01*
X000672Y005321D02*
X000250Y005321D01*
X000250Y005222D02*
X000631Y005222D01*
X000620Y005124D02*
X000250Y005124D01*
X000250Y005025D02*
X000620Y005025D01*
X000652Y004927D02*
X000250Y004927D01*
X000250Y004828D02*
X000693Y004828D01*
X000792Y004730D02*
X000250Y004730D01*
X000250Y004631D02*
X000978Y004631D01*
X000890Y004533D02*
X000250Y004533D01*
X000250Y004434D02*
X000755Y004434D01*
X000678Y004336D02*
X000250Y004336D01*
X000250Y004237D02*
X000637Y004237D01*
X000620Y004139D02*
X000250Y004139D01*
X000250Y004040D02*
X000620Y004040D01*
X000646Y003942D02*
X000250Y003942D01*
X000250Y003843D02*
X000687Y003843D01*
X000777Y003745D02*
X000250Y003745D01*
X000250Y003646D02*
X000942Y003646D01*
X000926Y003548D02*
X000250Y003548D01*
X000250Y003449D02*
X000770Y003449D01*
X000684Y003351D02*
X000250Y003351D01*
X000250Y003252D02*
X000643Y003252D01*
X000620Y003154D02*
X000250Y003154D01*
X000250Y003055D02*
X000620Y003055D01*
X000640Y002957D02*
X000250Y002957D01*
X000250Y002858D02*
X000681Y002858D01*
X000762Y002760D02*
X000250Y002760D01*
X000250Y002661D02*
X000906Y002661D01*
X000962Y002563D02*
X000250Y002563D01*
X000250Y002464D02*
X000785Y002464D01*
X000690Y002366D02*
X000250Y002366D01*
X000250Y002267D02*
X000650Y002267D01*
X000620Y002169D02*
X000250Y002169D01*
X000250Y002070D02*
X000620Y002070D01*
X000634Y001972D02*
X000250Y001972D01*
X000250Y001873D02*
X000674Y001873D01*
X000747Y001775D02*
X000250Y001775D01*
X000250Y001676D02*
X000869Y001676D01*
X000998Y001578D02*
X000250Y001578D01*
X000250Y001479D02*
X000800Y001479D01*
X000702Y001381D02*
X000250Y001381D01*
X000250Y001282D02*
X000656Y001282D01*
X000620Y001184D02*
X000250Y001184D01*
X000250Y001085D02*
X000620Y001085D01*
X000627Y000987D02*
X000250Y000987D01*
X000250Y000888D02*
X000668Y000888D01*
X000732Y000790D02*
X000250Y000790D01*
X000250Y000691D02*
X000833Y000691D01*
X001367Y000691D02*
X008833Y000691D01*
X008732Y000790D02*
X001468Y000790D01*
X001532Y000888D02*
X008668Y000888D01*
X008627Y000987D02*
X001573Y000987D01*
X001580Y001085D02*
X008620Y001085D01*
X008620Y001184D02*
X001580Y001184D01*
X001544Y001282D02*
X008656Y001282D01*
X008702Y001381D02*
X001498Y001381D01*
X001400Y001479D02*
X008800Y001479D01*
X009400Y001479D02*
X009958Y001479D01*
X009958Y001381D02*
X009498Y001381D01*
X009544Y001282D02*
X009957Y001282D01*
X009956Y001184D02*
X009580Y001184D01*
X009580Y001085D02*
X009956Y001085D01*
X009955Y000987D02*
X009573Y000987D01*
X009532Y000888D02*
X009955Y000888D01*
X009954Y000790D02*
X009468Y000790D01*
X009367Y000691D02*
X009954Y000691D01*
X009953Y000593D02*
X000250Y000593D01*
X000250Y000494D02*
X009952Y000494D01*
X009952Y000396D02*
X000250Y000396D01*
X000250Y000297D02*
X009951Y000297D01*
X009983Y005715D02*
X009393Y005715D01*
X009492Y005813D02*
X009984Y005813D01*
X009985Y005912D02*
X009541Y005912D01*
X009580Y006010D02*
X009985Y006010D01*
X009986Y006109D02*
X009580Y006109D01*
X009575Y006207D02*
X009985Y006207D01*
X009985Y006306D02*
X009534Y006306D01*
X009475Y006404D02*
X009984Y006404D01*
X009976Y007685D02*
X009351Y007685D01*
X009462Y007783D02*
X009976Y007783D01*
X009975Y007882D02*
X009529Y007882D01*
X009570Y007980D02*
X009975Y007980D01*
X009974Y008079D02*
X009580Y008079D01*
X009580Y008177D02*
X009973Y008177D01*
X009973Y008276D02*
X009547Y008276D01*
X009505Y008374D02*
X009972Y008374D01*
X009972Y008473D02*
X009406Y008473D01*
X009217Y008571D02*
X009971Y008571D01*
X009970Y008670D02*
X009315Y008670D01*
X009447Y008768D02*
X009970Y008768D01*
X009969Y008867D02*
X009523Y008867D01*
X009564Y008965D02*
X009969Y008965D01*
X009968Y009064D02*
X009580Y009064D01*
X009580Y009162D02*
X009967Y009162D01*
X009967Y009261D02*
X009553Y009261D01*
X009512Y009359D02*
X009966Y009359D01*
X009966Y009458D02*
X009421Y009458D01*
X009253Y009556D02*
X009965Y009556D01*
X009965Y009655D02*
X009279Y009655D01*
X009432Y009753D02*
X009964Y009753D01*
X009963Y009852D02*
X009517Y009852D01*
X009557Y009950D02*
X009963Y009950D01*
X009962Y010049D02*
X009580Y010049D01*
X009580Y010147D02*
X009962Y010147D01*
X009961Y010246D02*
X009559Y010246D01*
X009518Y010344D02*
X009960Y010344D01*
X009960Y010443D02*
X009436Y010443D01*
X009342Y010640D02*
X009959Y010640D01*
X009958Y010738D02*
X009473Y010738D01*
X009497Y010761D02*
X009545Y010827D01*
X009582Y010900D01*
X009607Y010978D01*
X009619Y011050D01*
X009150Y011050D01*
X009150Y010581D01*
X009222Y010593D01*
X009300Y010618D01*
X009373Y010655D01*
X009439Y010703D01*
X009497Y010761D01*
X009549Y010837D02*
X009958Y010837D01*
X009957Y010935D02*
X009593Y010935D01*
X009616Y011034D02*
X009956Y011034D01*
X009956Y011132D02*
X009150Y011132D01*
X009150Y011034D02*
X009050Y011034D01*
X009050Y010935D02*
X009150Y010935D01*
X009150Y010837D02*
X009050Y010837D01*
X009050Y010738D02*
X009150Y010738D01*
X009150Y010640D02*
X009050Y010640D01*
X009290Y010541D02*
X009959Y010541D01*
X009955Y011231D02*
X009604Y011231D01*
X009567Y011329D02*
X009955Y011329D01*
X009954Y011428D02*
X009505Y011428D01*
X009398Y011526D02*
X009953Y011526D01*
D13*
X007100Y006100D03*
X003100Y006100D03*
M02*
